<svg xmlns="http://www.w3.org/2000/svg" width="247" height="196" viewBox="0 0 247 196" fill="none">
  <g clip-path="url(#clip0_961_3121)">
    <path d="M247 172.242H0V172.373H247V172.242Z" fill="#EBEBEB"/>
    <path d="M117.078 148.778H21.6915C20.9443 148.777 20.2281 148.46 19.7002 147.897C19.1722 147.333 18.8757 146.57 18.8757 145.774V2.97767C18.8822 2.18644 19.1816 1.4299 19.7088 0.872372C20.2361 0.314843 20.9485 0.00135541 21.6915 0H117.078C117.826 0 118.544 0.316489 119.073 0.879844C119.602 1.4432 119.899 2.20727 119.899 3.00397V145.774C119.899 146.571 119.602 147.335 119.073 147.898C118.544 148.462 117.826 148.778 117.078 148.778ZM21.6915 0.105218C20.977 0.106612 20.2923 0.409858 19.7875 0.948396C19.2827 1.48693 18.9992 2.21676 18.9992 2.97767V145.774C18.9992 146.535 19.2827 147.265 19.7875 147.804C20.2923 148.342 20.977 148.645 21.6915 148.647H117.078C117.793 148.645 118.478 148.342 118.984 147.804C119.489 147.265 119.774 146.536 119.775 145.774V2.97767C119.774 2.21627 119.489 1.48646 118.984 0.948075C118.478 0.409687 117.793 0.106609 117.078 0.105218H21.6915Z" fill="#EBEBEB"/>
    <path d="M223.935 148.778H128.544C127.796 148.777 127.079 148.46 126.551 147.897C126.022 147.334 125.724 146.571 125.723 145.774V2.97767C125.731 2.18596 126.031 1.42943 126.559 0.872043C127.087 0.314659 127.8 0.00134063 128.544 0H223.935C224.677 0.00273803 225.389 0.316837 225.915 0.874218C226.441 1.4316 226.74 2.18735 226.746 2.97767V145.774C226.746 146.569 226.45 147.332 225.923 147.895C225.396 148.458 224.682 148.775 223.935 148.778ZM128.544 0.105218C127.829 0.106609 127.144 0.409687 126.638 0.948075C126.132 1.48646 125.848 2.21627 125.847 2.97767V145.774C125.848 146.536 126.132 147.265 126.638 147.804C127.144 148.342 127.829 148.645 128.544 148.647H223.935C224.65 148.645 225.335 148.342 225.841 147.804C226.346 147.265 226.631 146.536 226.632 145.774V2.97767C226.631 2.21627 226.346 1.48646 225.841 0.948075C225.335 0.409687 224.65 0.106609 223.935 0.105218H128.544Z" fill="#EBEBEB"/>
    <path d="M222.25 180.707H209.406V180.838H222.25V180.707Z" fill="#EBEBEB"/>
    <path d="M175.879 182.137H153.634V182.269H175.879V182.137Z" fill="#EBEBEB"/>
    <path d="M208.913 175.824H178.882V175.956H208.913V175.824Z" fill="#EBEBEB"/>
    <path d="M35.4148 176.708H25.9152V176.84H35.4148V176.708Z" fill="#EBEBEB"/>
    <path d="M67.1295 176.708H39.8163V176.84H67.1295V176.708Z" fill="#EBEBEB"/>
    <path d="M120.605 178.929H83.8169V179.06H120.605V178.929Z" fill="#EBEBEB"/>
    <path d="M187.023 169.548H190.975V91.6607H187.023V169.548Z" fill="#F0F0F0"/>
    <path d="M168.059 172.231H189.938V169.543H168.059V172.231Z" fill="#F0F0F0"/>
    <path d="M187.028 91.6555H167.011V169.543H187.028V91.6555Z" fill="#F5F5F5"/>
    <path d="M184.894 132.217H169.146V146.127H184.894V132.217Z" fill="#F0F0F0"/>
    <path d="M184.894 150.42H169.146V164.329H184.894V150.42Z" fill="#F0F0F0"/>
    <path d="M174.92 140.124H179.114C179.436 140.124 179.697 139.846 179.697 139.503V138.835C179.697 138.492 179.436 138.214 179.114 138.214H174.92C174.598 138.214 174.337 138.492 174.337 138.835V139.503C174.337 139.846 174.598 140.124 174.92 140.124Z" fill="#F5F5F5"/>
    <path d="M174.92 158.327H179.114C179.436 158.327 179.697 158.049 179.697 157.706V157.038C179.697 156.695 179.436 156.417 179.114 156.417H174.92C174.598 156.417 174.337 156.695 174.337 157.038V157.706C174.337 158.049 174.598 158.327 174.92 158.327Z" fill="#F5F5F5"/>
    <path d="M184.894 95.9536H169.146V109.863H184.894V95.9536Z" fill="#F0F0F0"/>
    <path d="M184.894 114.009H169.146V127.919H184.894V114.009Z" fill="#F0F0F0"/>
    <path d="M174.92 103.861H179.114C179.436 103.861 179.697 103.583 179.697 103.24V102.572C179.697 102.229 179.436 101.951 179.114 101.951H174.92C174.598 101.951 174.337 102.229 174.337 102.572V103.24C174.337 103.583 174.598 103.861 174.92 103.861Z" fill="#F5F5F5"/>
    <path d="M174.92 121.921H179.114C179.436 121.921 179.697 121.643 179.697 121.301V120.632C179.697 120.29 179.436 120.012 179.114 120.012H174.92C174.598 120.012 174.337 120.29 174.337 120.632V121.301C174.337 121.643 174.598 121.921 174.92 121.921Z" fill="#F5F5F5"/>
    <path d="M208.932 169.548H220.788V91.6607H208.932V169.548Z" fill="#F0F0F0"/>
    <path d="M189.953 172.231H219.568V169.543H189.953V172.231Z" fill="#F0F0F0"/>
    <path d="M208.932 91.6555H188.915V169.543H208.932V91.6555Z" fill="#F5F5F5"/>
    <path d="M206.798 132.217H191.05V146.127H206.798V132.217Z" fill="#F0F0F0"/>
    <path d="M206.798 150.42H191.05V164.329H206.798V150.42Z" fill="#F0F0F0"/>
    <path d="M196.824 140.124H201.018C201.34 140.124 201.601 139.846 201.601 139.503V138.835C201.601 138.492 201.34 138.214 201.018 138.214H196.824C196.502 138.214 196.241 138.492 196.241 138.835V139.503C196.241 139.846 196.502 140.124 196.824 140.124Z" fill="#F5F5F5"/>
    <path d="M196.824 158.327H201.018C201.34 158.327 201.601 158.049 201.601 157.706V157.038C201.601 156.695 201.34 156.417 201.018 156.417H196.824C196.502 156.417 196.241 156.695 196.241 157.038V157.706C196.241 158.049 196.502 158.327 196.824 158.327Z" fill="#F5F5F5"/>
    <path d="M206.798 95.9536H191.05V109.863H206.798V95.9536Z" fill="#F0F0F0"/>
    <path d="M206.798 114.009H191.05V127.919H206.798V114.009Z" fill="#F0F0F0"/>
    <path d="M196.824 103.861H201.018C201.34 103.861 201.601 103.583 201.601 103.24V102.572C201.601 102.229 201.34 101.951 201.018 101.951H196.824C196.502 101.951 196.241 102.229 196.241 102.572V103.24C196.241 103.583 196.502 103.861 196.824 103.861Z" fill="#F5F5F5"/>
    <path d="M196.824 121.921H201.018C201.34 121.921 201.601 121.643 201.601 121.301V120.632C201.601 120.29 201.34 120.012 201.018 120.012H196.824C196.502 120.012 196.241 120.29 196.241 120.632V121.301C196.241 121.643 196.502 121.921 196.824 121.921Z" fill="#F5F5F5"/>
    <path d="M144.559 75.3992L211.106 75.3992V13.1838L144.559 13.1838V75.3992Z" fill="#E6E6E6"/>
    <path d="M137.426 10.7639H215.414C215.589 10.7639 215.758 10.8382 215.882 10.9704C216.006 11.1026 216.076 11.2819 216.076 11.4689C216.074 11.6549 216.004 11.8329 215.88 11.964C215.756 12.095 215.588 12.1686 215.414 12.1686H137.426C137.252 12.1672 137.086 12.093 136.963 11.9621C136.84 11.8312 136.77 11.654 136.769 11.4689C136.769 11.2828 136.838 11.1043 136.961 10.9722C137.084 10.8402 137.251 10.7653 137.426 10.7639Z" fill="#E6E6E6"/>
    <path d="M141.739 75.3992L209.792 75.3992V13.1838L141.739 13.1838V75.3992Z" fill="#F0F0F0"/>
    <path d="M144.559 75.3992H211.106V77.393H142.613L144.559 75.3992Z" fill="#E6E6E6"/>
    <path d="M137.031 75.3992H205.084L203.138 77.393H135.084L137.031 75.3992Z" fill="#F0F0F0"/>
    <path d="M205.835 71.1905V17.3926L145.69 17.3926V71.1905H205.835Z" fill="#FAFAFA"/>
    <path d="M192.181 71.1905L168.978 17.3926H158.026L181.229 71.1905H192.181Z" fill="white"/>
    <path d="M178.877 71.1905L155.674 17.3926H151.401L174.604 71.1905H178.877Z" fill="white"/>
    <path d="M146.189 71.1905V17.3926H145.686V71.1905H146.189Z" fill="#E6E6E6"/>
    <g opacity="0.4">
      <path d="M205.786 60.8423H212.588V9.50117H205.786V60.8423Z" fill="#F0F0F0"/>
      <path d="M203.138 60.8423H208.438V9.50117H203.138V60.8423Z" fill="#E6E6E6"/>
      <path d="M198.988 60.8423H205.791V9.50117H198.988V60.8423Z" fill="#F0F0F0"/>
      <path d="M196.335 60.8423H201.636V9.50117H196.335V60.8423Z" fill="#E6E6E6"/>
      <path d="M192.181 60.8423H198.983V9.50117H192.181V60.8423Z" fill="#F0F0F0"/>
    </g>
    <g opacity="0.4">
      <path d="M148.22 60.8423H152.142V9.50117H148.22V60.8423Z" fill="#F0F0F0"/>
      <path d="M146.693 60.8423H149.746V9.50117H146.693V60.8423Z" fill="#E6E6E6"/>
      <path d="M144.297 60.8423H148.22V9.50117H144.297V60.8423Z" fill="#F0F0F0"/>
      <path d="M142.776 60.8423H145.829V9.50117H142.776V60.8423Z" fill="#E6E6E6"/>
      <path d="M140.375 60.8423H144.297V9.50117H140.375V60.8423Z" fill="#F0F0F0"/>
    </g>
    <path d="M81.1246 50.8728H90.5403L89.4288 25.4417H81.1246V50.8728Z" fill="#F5F5F5"/>
    <path d="M95.8607 52.2461L97.8911 63.5412H95.8607L83.407 52.2461H95.8607Z" fill="#F5F5F5"/>
    <path d="M97.891 52.2461V63.5412L85.4373 52.2461H97.891Z" fill="#E6E6E6"/>
    <path d="M47.0189 52.2461L49.0493 63.5412H47.0189L34.5652 52.2461H47.0189Z" fill="#F5F5F5"/>
    <path d="M49.0493 52.2461V63.5412L36.5956 52.2461H49.0493Z" fill="#E6E6E6"/>
    <path d="M107.035 50.9099H93.4895V52.5408H107.035V50.9099Z" fill="#E6E6E6"/>
    <path d="M26.1474 52.5405L93.4895 52.5405V50.9097L26.1474 50.9097V52.5405Z" fill="#F5F5F5"/>
    <path d="M67.2877 50.873H87.5022L90.0018 20.0547H69.7874L67.2877 50.873Z" fill="#E6E6E6"/>
    <path d="M66.2405 50.873H86.455L88.9546 20.0547H68.7401L66.2405 50.873Z" fill="#F0F0F0"/>
    <path d="M84.7605 47.4586L87.0477 23.4636H70.4394L68.1522 47.4586H84.7605Z" fill="white"/>
    <path d="M58.2377 50.8729H64.7239L63.9582 33.3594H58.2377V50.8729Z" fill="#E0E0E0"/>
    <path d="M48.7134 50.8729H62.6294L64.3534 29.6504H50.4325L48.7134 50.8729Z" fill="#F0F0F0"/>
    <path d="M47.9921 50.8729H61.913L63.6321 29.6504H49.7112L47.9921 50.8729Z" fill="#F5F5F5"/>
    <path d="M60.7423 48.5214L62.3132 32.0022H50.882L49.3062 48.5214H60.7423Z" fill="#E0E0E0"/>
    <path d="M129.606 95.4536C129.652 96.0418 129.533 96.6313 129.264 97.1476C128.996 97.6638 128.589 98.0836 128.097 98.3538C127.604 98.6239 127.047 98.7323 126.496 98.6652C125.946 98.5981 125.426 98.3586 125.003 97.9769C124.58 97.5952 124.274 97.0885 124.121 96.521C123.969 95.9535 123.978 95.3506 124.148 94.7887C124.318 94.2268 124.64 93.7311 125.074 93.3644C125.508 92.9976 126.035 92.7763 126.587 92.7285C126.954 92.6961 127.322 92.7409 127.672 92.8603C128.022 92.9798 128.347 93.1715 128.627 93.4247C128.907 93.6778 129.138 93.9872 129.306 94.3354C129.474 94.6835 129.576 95.0635 129.606 95.4536Z" fill="#E0E0E0"/>
    <path d="M134.808 97.0111C134.854 97.5993 134.735 98.1888 134.466 98.7051C134.198 99.2213 133.791 99.6411 133.298 99.9112C132.806 100.181 132.249 100.29 131.698 100.223C131.147 100.156 130.628 99.916 130.205 99.5343C129.782 99.1527 129.475 98.646 129.323 98.0785C129.171 97.5109 129.18 96.9081 129.35 96.3462C129.519 95.7843 129.842 95.2886 130.276 94.9218C130.71 94.5551 131.237 94.3338 131.789 94.2859C132.529 94.2219 133.262 94.4729 133.828 94.9838C134.394 95.4947 134.746 96.2238 134.808 97.0111Z" fill="#E0E0E0"/>
    <path d="M138.567 95.2222C138.612 95.8103 138.492 96.3994 138.223 96.915C137.954 97.4306 137.547 97.8496 137.054 98.1189C136.561 98.3883 136.004 98.4959 135.454 98.4282C134.903 98.3604 134.384 98.1204 133.962 97.7384C133.54 97.3564 133.233 96.8497 133.082 96.2822C132.93 95.7148 132.939 95.1121 133.109 94.5505C133.279 93.9889 133.601 93.4935 134.036 93.1271C134.47 92.7606 134.996 92.5396 135.549 92.4918C136.289 92.4292 137.022 92.6814 137.587 93.1932C138.153 93.7049 138.505 94.4345 138.567 95.2222Z" fill="#E0E0E0"/>
    <path d="M142.534 96.3378C142.578 96.9244 142.458 97.5118 142.188 98.0258C141.919 98.5397 141.513 98.9571 141.021 99.2253C140.529 99.4935 139.973 99.6005 139.424 99.5327C138.875 99.4648 138.358 99.2253 137.936 98.8443C137.515 98.4633 137.21 97.9579 137.058 97.3919C136.906 96.826 136.915 96.2249 137.084 95.6645C137.253 95.1042 137.574 94.6097 138.007 94.2435C138.44 93.8774 138.965 93.656 139.515 93.6074C139.882 93.575 140.251 93.62 140.601 93.7397C140.952 93.8595 141.276 94.0517 141.557 94.3054C141.837 94.559 142.068 94.8691 142.235 95.2179C142.403 95.5667 142.504 95.9472 142.534 96.3378Z" fill="#E0E0E0"/>
    <path d="M146.096 96.8005C146.096 96.8005 145.77 105.081 133.281 105.081C120.793 105.081 120.437 96.8005 120.437 96.8005H146.096Z" fill="#F0F0F0"/>
    <path d="M29.5806 172.242H34.1205L34.1205 105.097H29.5806L29.5806 172.242Z" fill="#E6E6E6"/>
    <path d="M28.3704 172.242H31.043L31.043 105.097H28.3704L28.3704 172.242Z" fill="#F0F0F0"/>
    <path d="M91.9876 105.097H27.5404V110.132H91.9876V105.097Z" fill="#F0F0F0"/>
    <path d="M153.021 172.242H157.561V105.097H153.021V172.242Z" fill="#E6E6E6"/>
    <path d="M152.172 172.242H154.844V105.097H152.172V172.242Z" fill="#F0F0F0"/>
    <path d="M158.371 105.097H93.9242V110.132H158.371V105.097Z" fill="#E6E6E6"/>
    <path d="M92.3681 172.242H96.908L96.908 105.097H92.3681L92.3681 172.242Z" fill="#E6E6E6"/>
    <path d="M91.1578 172.242H93.8303L93.8303 105.097H91.1578L91.1578 172.242Z" fill="#F0F0F0"/>
    <path d="M107.267 82.7644H73.6208L67.6237 103.924H101.275L107.267 82.7644Z" fill="#E6E6E6"/>
    <path d="M101.275 103.924L101.142 105.097H67.4902L67.6236 103.924H101.275Z" fill="#E6E6E6"/>
    <path d="M106.235 82.7644H72.5834L66.5912 103.924H100.238L106.235 82.7644Z" fill="#F0F0F0"/>
    <path d="M99.5805 102.961L105.024 83.7324H73.2453L67.7965 102.961H99.5805Z" fill="white"/>
    <path d="M91.4739 103.924L91.3356 105.097H54.2806L54.414 103.924H91.4739Z" fill="#F0F0F0"/>
    <path d="M123.5 196C176.399 196 219.282 193.334 219.282 190.045C219.282 186.756 176.399 184.089 123.5 184.089C70.6013 184.089 27.7184 186.756 27.7184 190.045C27.7184 193.334 70.6013 196 123.5 196Z" fill="#F5F5F5"/>
    <path d="M186.51 28.4877H129.655C127.705 28.5219 125.837 29.3289 124.416 30.7511C122.994 32.1733 122.122 34.1086 121.969 36.1792L113.126 181.148C113.054 182.136 113.176 183.128 113.483 184.062C113.791 184.996 114.278 185.852 114.913 186.575C115.548 187.298 116.318 187.873 117.173 188.262C118.028 188.65 118.949 188.846 119.879 188.835H176.753C178.703 188.802 180.571 187.996 181.992 186.575C183.414 185.153 184.286 183.219 184.44 181.148L190.783 76.9511C191.052 76.851 191.289 76.6702 191.464 76.4303C191.639 76.1905 191.746 75.9018 191.771 75.5991L192.907 56.9545C192.927 56.6648 192.858 56.3762 192.71 56.1322C192.562 55.8882 192.343 55.7023 192.087 55.6024L193.268 36.1792C193.34 35.1914 193.218 34.1984 192.91 33.2635C192.602 32.3285 192.115 31.4721 191.479 30.7486C190.843 30.0252 190.073 29.4506 189.218 29.0613C188.362 28.6721 187.44 28.4767 186.51 28.4877Z" fill="#407BFF"/>
    <path d="M117.365 66.0243H118.481C118.826 66.0177 119.157 65.8746 119.409 65.6228C119.661 65.371 119.816 65.0285 119.844 64.6617L120.338 56.8756C120.351 56.7004 120.329 56.5244 120.274 56.3588C120.219 56.1931 120.132 56.0414 120.019 55.9133C119.907 55.7852 119.77 55.6835 119.618 55.6145C119.467 55.5456 119.303 55.5111 119.138 55.513H118.027C117.681 55.5184 117.349 55.6611 117.097 55.9132C116.845 56.1652 116.69 56.5084 116.663 56.8756L116.169 64.6617C116.157 64.8365 116.179 65.012 116.233 65.1773C116.288 65.3426 116.374 65.494 116.486 65.6221C116.599 65.7501 116.735 65.8519 116.886 65.9212C117.037 65.9904 117.2 66.0255 117.365 66.0243Z" fill="#407BFF"/>
    <path d="M116.52 79.9237H117.631C117.978 79.9171 118.31 79.7734 118.563 79.5207C118.816 79.2679 118.971 78.924 119 78.5559L119.494 70.775C119.506 70.5998 119.484 70.4238 119.429 70.2582C119.374 70.0925 119.288 69.9408 119.175 69.8127C119.062 69.6846 118.925 69.5829 118.773 69.514C118.622 69.4451 118.458 69.4105 118.293 69.4124H117.182C116.835 69.4177 116.503 69.5603 116.25 69.8122C115.997 70.0641 115.842 70.4074 115.813 70.775L115.319 78.5559C115.305 78.7317 115.326 78.9086 115.381 79.0752C115.435 79.2418 115.522 79.3945 115.635 79.5234C115.748 79.6523 115.885 79.7545 116.037 79.8234C116.19 79.8924 116.354 79.9265 116.52 79.9237Z" fill="#407BFF"/>
    <path d="M173.73 188.835H116.876C115.946 188.846 115.024 188.65 114.169 188.261C113.314 187.872 112.545 187.298 111.91 186.575C111.274 185.852 110.788 184.996 110.48 184.062C110.172 183.128 110.051 182.136 110.123 181.148L118.945 36.1791C119.1 34.1081 119.973 32.1727 121.396 30.7506C122.818 29.3285 124.686 28.5217 126.637 28.4877H183.487C184.416 28.4774 185.338 28.6733 186.193 29.0629C187.048 29.4524 187.817 30.0272 188.453 30.7505C189.088 31.4739 189.575 32.3301 189.882 33.2647C190.19 34.1993 190.311 35.1918 190.239 36.1791L181.417 181.148C181.263 183.218 180.391 185.153 178.969 186.575C177.548 187.996 175.68 188.802 173.73 188.835Z" fill="#263238"/>
    <path opacity="0.2" d="M149.167 182.67C151.159 180.617 151.309 177.342 149.502 175.354C147.696 173.367 144.617 173.42 142.625 175.473C140.634 177.527 140.484 180.802 142.29 182.79C144.097 184.777 147.176 184.724 149.167 182.67Z" fill="white"/>
    <path d="M178.868 170.016H114.238C114.017 170.016 113.8 169.968 113.598 169.875C113.396 169.781 113.214 169.645 113.064 169.474C112.913 169.303 112.797 169.101 112.723 168.88C112.649 168.659 112.618 168.425 112.632 168.191L120.195 43.8654C120.229 43.436 120.412 43.0356 120.709 42.7433C121.007 42.4511 121.396 42.2883 121.801 42.2871H186.436C186.656 42.2873 186.873 42.3356 187.075 42.4289C187.277 42.5223 187.459 42.6587 187.609 42.8298C187.76 43.0008 187.876 43.2029 187.95 43.4236C188.024 43.6442 188.055 43.8787 188.041 44.1126L180.473 168.412C180.447 168.846 180.266 169.254 179.968 169.552C179.67 169.85 179.276 170.016 178.868 170.016Z" fill="white"/>
    <path opacity="0.2" d="M160.835 121.014C168.064 113.561 168.608 101.671 162.05 94.456C155.492 87.2414 144.315 87.4346 137.085 94.8876C129.856 102.341 129.312 114.231 135.87 121.446C142.428 128.661 153.605 128.467 160.835 121.014Z" fill="#407BFF"/>
    <path opacity="0.2" d="M147.212 136.92C132.209 136.92 120.793 123.92 121.766 107.943C122.739 91.9657 135.731 78.9661 150.739 78.9661C165.747 78.9661 177.158 91.9657 176.185 107.943C175.212 123.92 162.2 136.92 147.212 136.92ZM150.67 79.4922C135.939 79.4922 123.179 92.2551 122.225 107.943C121.272 123.631 132.476 136.394 147.207 136.394C161.938 136.394 174.698 123.631 175.656 107.943C176.615 92.2551 165.421 79.4922 150.67 79.4922Z" fill="#407BFF"/>
    <path d="M144.742 117.05L143.26 114.004C140.049 107.37 132.654 101.441 130.07 99.7152L132.511 95.8274C135.568 97.8686 141.679 102.924 145.513 108.932C152.602 99.9888 162.62 90.7769 176.032 80.8391L178.319 84.5217C163.993 95.1382 153.683 104.845 146.827 114.198L144.742 117.05Z" fill="#407BFF"/>
    <path opacity="0.2" d="M144.041 36.7633C144.847 35.9327 144.906 34.6062 144.174 33.8003C143.441 32.9945 142.194 33.0146 141.389 33.8452C140.583 34.6758 140.524 36.0024 141.256 36.8082C141.989 37.614 143.236 37.5939 144.041 36.7633Z" fill="white"/>
    <path opacity="0.2" d="M149.638 33.2069H165.984C166.238 33.2038 166.49 33.2572 166.724 33.3638C166.957 33.4704 167.167 33.6279 167.34 33.826C167.513 34.0242 167.645 34.2587 167.728 34.5144C167.811 34.7702 167.843 35.0416 167.822 35.3113C167.781 35.8768 167.544 36.4058 167.157 36.795C166.769 37.1842 166.26 37.4055 165.727 37.4156H149.386C149.132 37.4179 148.88 37.3639 148.647 37.2571C148.413 37.1503 148.203 36.9929 148.03 36.795C147.857 36.5971 147.724 36.3631 147.64 36.1076C147.556 35.8522 147.523 35.581 147.543 35.3113C147.584 34.7458 147.821 34.2167 148.208 33.8275C148.595 33.4384 149.105 33.2171 149.638 33.2069Z" fill="white"/>
    <path d="M88.7916 72.0742C87.9568 72.9843 87.0626 73.9892 86.2376 74.9887C85.4127 75.9883 84.5877 77.0142 83.8121 78.0664C83.0365 79.1185 82.3301 80.1707 81.599 81.2808L81.105 82.1067L80.611 82.9432C80.4479 83.222 80.2997 83.5061 80.1565 83.7955L79.7613 84.5688C79.6002 85.0111 79.5084 85.4785 79.4896 85.9525C79.45 86.562 79.45 87.1737 79.4896 87.7832C79.5864 89.0984 79.7514 90.4068 79.9836 91.7026C80.201 93.0284 80.4776 94.3594 80.7691 95.6851C81.0605 97.0109 81.3816 98.3524 81.7076 99.6571L79.8799 100.388C78.7567 97.8152 77.8155 95.1563 77.0641 92.4339C76.6825 91.0308 76.3903 89.6018 76.1897 88.1568C76.0898 87.3862 76.0386 86.6093 76.0365 85.8314C76.0249 84.915 76.1706 84.0039 76.4663 83.1431C76.5799 82.8485 76.6392 82.7328 76.7183 82.5539L76.9455 82.0541C77.0937 81.7227 77.2468 81.3913 77.4395 81.0703L77.9335 80.1023L78.4571 79.1606C79.1549 77.9201 79.9151 76.7206 80.7345 75.5674C81.5446 74.4153 82.3844 73.2947 83.2687 72.211C84.153 71.1272 85.0471 70.1066 86.0746 69.0544L88.7916 72.0742Z" fill="#B55B52"/>
    <path d="M89.004 65.7613C86.3266 65.8875 83.7825 70.6223 83.7825 70.6223L87.3195 78.3085C87.3195 78.3085 92.1113 74.0577 92.1706 69.8911C92.2101 67.1607 91.6371 65.6297 89.004 65.7613Z" fill="#407BFF"/>
    <path opacity="0.7" d="M89.004 65.7613C86.3266 65.8875 83.7825 70.6223 83.7825 70.6223L87.3195 78.3085C87.3195 78.3085 92.1113 74.0577 92.1706 69.8911C92.2101 67.1607 91.6371 65.6297 89.004 65.7613Z" fill="white"/>
    <path opacity="0.2" d="M89.6413 71.2854C88.8608 72.5427 88.4854 75.8045 88.3668 77.2565C89.5455 76.0358 90.5447 74.6329 91.3308 73.0951C90.8022 71.6905 90.1551 70.4594 89.6413 71.2854Z" fill="black"/>
    <path d="M81.1791 98.8577L84.4346 99.9098L82.2659 102.246C82.2659 102.246 79.9194 101.472 79.5934 99.7731L81.1791 98.8577Z" fill="#B55B52"/>
    <path d="M86.4056 102.556L85.8573 104.792L82.2659 102.225L84.4345 99.8887L86.4056 102.556Z" fill="#B55B52"/>
    <path d="M107.825 56.6335C107.722 56.9439 107.796 57.2595 107.988 57.3332C108.181 57.4068 108.418 57.2227 108.517 56.9123C108.616 56.6019 108.547 56.281 108.354 56.2073C108.161 56.1337 107.929 56.3178 107.825 56.6335Z" fill="#263238"/>
    <path d="M108.265 56.1917L109.041 56.26C109.041 56.26 108.487 56.6967 108.265 56.1917Z" fill="#263238"/>
    <path d="M107.974 57.0332C108.003 57.8517 108.136 58.6622 108.369 59.4427C108.18 59.4952 107.983 59.5036 107.791 59.4673C107.6 59.431 107.417 59.3508 107.257 59.2323L107.974 57.0332Z" fill="#A02724"/>
    <path d="M108.784 55.4182C108.749 55.413 108.716 55.3967 108.689 55.3714C108.663 55.346 108.644 55.3129 108.636 55.2762C108.581 55.0383 108.477 54.8167 108.331 54.6281C108.185 54.4394 108 54.2887 107.791 54.1871C107.746 54.1694 107.709 54.1335 107.689 54.0872C107.669 54.0409 107.666 53.988 107.682 53.9399C107.69 53.9157 107.702 53.8935 107.718 53.8745C107.734 53.8556 107.753 53.8402 107.775 53.8294C107.797 53.8186 107.82 53.8125 107.844 53.8116C107.868 53.8107 107.892 53.815 107.914 53.8241C108.183 53.9485 108.421 54.1386 108.608 54.379C108.795 54.6194 108.926 54.9033 108.991 55.2078C108.997 55.2326 108.998 55.2585 108.995 55.2839C108.991 55.3093 108.983 55.3337 108.971 55.3557C108.958 55.3777 108.942 55.3968 108.923 55.4121C108.903 55.4273 108.881 55.4383 108.858 55.4445L108.784 55.4182Z" fill="#263238"/>
    <path d="M97.6786 57.9541C97.7478 60.4425 97.5107 64.9195 95.7026 66.1874C95.7026 66.1874 95.9447 68.7442 100.149 69.6123C104.768 70.5645 102.732 67.6394 102.732 67.6394C100.312 66.482 100.682 64.5144 101.408 62.7468L97.6786 57.9541Z" fill="#B55B52"/>
    <path d="M111.407 74.9834C111.822 76.1881 112.296 77.4928 112.8 78.7292C113.304 79.9655 113.788 81.2176 114.376 82.4118C114.964 83.606 115.537 84.8055 116.159 85.9682C116.48 86.5416 116.801 87.115 117.147 87.6622C117.315 87.9463 117.488 88.2198 117.671 88.4776L117.938 88.8774L118.071 89.0826L118.14 89.1826L118.185 89.2352C118.506 89.6244 118.875 89.9659 119.281 90.2505C119.771 90.6067 120.279 90.9333 120.803 91.2291C121.885 91.8498 123.046 92.4128 124.226 92.9441C125.407 93.4755 126.612 93.9963 127.832 94.454C129.053 94.9117 130.302 95.3957 131.503 95.8429L131.043 97.8683C128.396 97.397 125.78 96.7415 123.214 95.906C121.899 95.4792 120.609 94.9715 119.35 94.3856C118.69 94.0735 118.047 93.7223 117.424 93.3334C116.701 92.8945 116.046 92.339 115.482 91.6868L115.364 91.5447L115.28 91.4342L115.117 91.2185L114.791 90.7766C114.569 90.4873 114.356 90.1927 114.159 89.8928C113.739 89.2983 113.353 88.688 112.973 88.0725C112.223 86.8515 111.533 85.5908 110.903 84.2952C110.276 83.0063 109.683 81.7068 109.139 80.3811C108.596 79.0553 108.107 77.7506 107.657 76.2986L111.407 74.9834Z" fill="#B55B52"/>
    <path d="M130.851 95.8325L133.765 94.6331L133.622 98.2157C133.622 98.2157 131.261 98.8839 130.164 97.616L130.851 95.8325Z" fill="#B55B52"/>
    <path d="M135.964 95.8641L136.962 98.1526L133.622 98.2157L133.765 94.6331L135.964 95.8641Z" fill="#B55B52"/>
    <path d="M87.6257 185.652L91.4839 185.957L92.6299 176.524L88.7718 176.219L87.6257 185.652Z" fill="#B55B52"/>
    <path d="M57.0669 164.314L59.5863 167.502L67.0655 162.383L64.5461 159.195L57.0669 164.314Z" fill="#B55B52"/>
    <path d="M60.7621 167.092L58.7318 162.936C58.6994 162.863 58.6433 162.806 58.5741 162.775C58.5049 162.744 58.4274 162.741 58.3563 162.767L55.1305 163.956C55.0495 163.991 54.9764 164.043 54.9159 164.11C54.8554 164.177 54.8089 164.257 54.7795 164.345C54.7501 164.432 54.7385 164.525 54.7453 164.618C54.7522 164.711 54.7774 164.801 54.8193 164.882C55.5504 166.318 55.9703 166.986 56.8595 168.801C57.4128 169.922 58.1093 171.627 58.8651 173.179C59.621 174.731 61.0634 174.041 60.8757 173.321C60.026 170.106 60.5892 169.217 60.8757 167.823C60.9164 167.573 60.8764 167.315 60.7621 167.092Z" fill="#263238"/>
    <path d="M91.7259 185.373H87.3885C87.3139 185.372 87.2414 185.4 87.1843 185.451C87.1271 185.502 87.0892 185.573 87.0773 185.652L86.4944 189.303C86.4824 189.394 86.4889 189.487 86.5134 189.575C86.5379 189.663 86.58 189.744 86.6366 189.814C86.6933 189.883 86.7633 189.939 86.8419 189.977C86.9205 190.015 87.0058 190.034 87.0921 190.034C88.6087 190.008 89.3349 189.913 91.2417 189.913C92.4175 189.913 94.8381 190.045 96.4584 190.045C98.0787 190.045 98.2071 188.34 97.5353 188.182C94.5268 187.493 93.361 186.536 92.3631 185.626C92.1871 185.461 91.9602 185.371 91.7259 185.373Z" fill="#263238"/>
    <path opacity="0.2" d="M92.63 176.524L91.9927 181.769L88.1494 181.359L88.7719 176.224L92.63 176.524Z" fill="black"/>
    <path opacity="0.2" d="M64.5461 159.195L67.0655 162.383L63.9681 164.503L61.3549 161.378L64.5461 159.195Z" fill="black"/>
    <path d="M87.9321 90.7768L103.404 93.9702C110.715 71.0484 108.967 70.2961 108.967 70.2961C107.83 69.6421 106.657 69.0623 105.454 68.56L105.242 68.4758C104.254 68.0918 104.046 68.0339 102.722 67.6236C100.44 67.0501 98.3209 66.5714 95.6978 66.1768L95.2038 66.1032C94.7098 66.04 94.2553 65.9874 93.8009 65.9401C93.4946 65.9033 93.1883 65.8822 92.8968 65.8612L91.9088 65.8033C90.2194 65.7139 89.009 65.7402 89.009 65.7402C89.8587 80.0551 89.2116 84.1744 87.9321 90.7768Z" fill="#407BFF"/>
    <path opacity="0.7" d="M87.9321 90.7768L103.404 93.9702C110.715 71.0484 108.967 70.2961 108.967 70.2961C107.83 69.6421 106.657 69.0623 105.454 68.56L105.242 68.4758C104.254 68.0918 104.046 68.0339 102.722 67.6236C100.44 67.0501 98.3209 66.5714 95.6978 66.1768L95.2038 66.1032C94.7098 66.04 94.2553 65.9874 93.8009 65.9401C93.4946 65.9033 93.1883 65.8822 92.8968 65.8612L91.9088 65.8033C90.2194 65.7139 89.009 65.7402 89.009 65.7402C89.8587 80.0551 89.2116 84.1744 87.9321 90.7768Z" fill="white"/>
    <path opacity="0.2" d="M106.744 75.6465L105.346 75.4045C105.346 77.3669 106.047 80.7338 106.729 82.875C107.307 80.7707 107.756 79.0398 108.097 77.5826L106.744 75.6465Z" fill="black"/>
    <path d="M108.428 70.0174C110.715 70.796 112.38 75.615 113.003 77.6931L108.557 83.2539C108.557 83.2539 104.002 76.2832 104.728 74.1209C105.439 71.8693 107.322 69.6334 108.428 70.0174Z" fill="#407BFF"/>
    <path opacity="0.7" d="M108.428 70.0174C110.715 70.796 112.38 75.615 113.003 77.6931L108.557 83.2539C108.557 83.2539 104.002 76.2832 104.728 74.1209C105.439 71.8693 107.322 69.6334 108.428 70.0174Z" fill="white"/>
    <path d="M109.91 52.2252C109.451 53.6614 107.44 54.2348 105.439 53.5141C103.439 52.7933 102.174 51.0309 102.633 49.5947C103.093 48.1585 105.103 47.5851 107.079 48.3111C109.055 49.0371 110.365 50.7889 109.91 52.2252Z" fill="#263238"/>
    <path d="M98.3061 51.8302C97.2786 55.7444 96.7648 57.3752 97.9405 60.0688C99.709 64.125 104.442 64.7615 106.546 61.2841C108.438 58.1591 109.801 52.2827 106.778 49.3418C106.14 48.6852 105.352 48.217 104.492 47.9836C103.633 47.7502 102.731 47.7595 101.875 48.0108C101.02 48.262 100.241 48.7464 99.6148 49.4162C98.9889 50.0861 98.5378 50.9181 98.3061 51.8302Z" fill="#B55B52"/>
    <path d="M104.046 47.2586C102.564 48.1635 99.4176 42.4975 95.5101 47.2586C92.714 50.673 94.4974 55.6761 94.4974 55.6761C94.4974 55.6761 92.2694 51.5042 90.491 53.5401C88.1692 56.1706 90.5701 65.5823 98.2271 64.9353C105.884 64.2882 105.143 57.6699 105.143 57.6699C105.143 57.6699 108.73 53.7874 108.552 50.3047C108.418 47.6953 106.516 45.7698 104.046 47.2586Z" fill="#263238"/>
    <path d="M104.975 55.1919C104.784 55.9203 104.808 56.6936 105.044 57.4068C105.36 58.4116 106.087 58.4169 106.472 57.7224C106.857 57.028 107.07 55.8232 106.521 55.0131C105.973 54.2029 105.222 54.387 104.975 55.1919Z" fill="#B55B52"/>
    <path d="M99.294 93.118C99.294 93.118 97.6441 99.2101 95.5248 107.249C94.1169 112.604 92.4966 118.823 91.0195 124.678C90.1748 128.029 89.3794 131.259 88.6928 134.148C84.8099 150.483 65.4451 164.524 65.4451 164.524L61.6957 160.131C61.6957 160.131 74.7076 148.463 78.4917 133.222C86.1339 102.282 81.8361 97.0636 87.9271 90.7769L99.294 93.118Z" fill="#263238"/>
    <path opacity="0.2" d="M97.6243 98.5789C97.0513 100.941 96.33 103.924 95.5347 107.259C94.1268 112.615 92.5065 118.833 91.0294 124.689C90.3971 117.218 90.0414 103.482 95.2037 99.2102C96.2213 98.379 97.0266 98.2054 97.6243 98.5789Z" fill="black"/>
    <path d="M65.7664 165.155L61.0833 159.668L62.501 158.153L68.2462 163.919L65.7664 165.155Z" fill="#407BFF"/>
    <path opacity="0.7" d="M65.7664 165.155L61.0833 159.668L62.501 158.153L68.2462 163.919L65.7664 165.155Z" fill="white"/>
    <path d="M61.4685 169.322C61.4214 169.321 61.3747 169.312 61.3301 169.296C60.8707 169.117 60.5793 168.18 60.4459 167.639C60.4416 167.62 60.4426 167.601 60.4487 167.583C60.4549 167.565 60.4659 167.55 60.4805 167.539C60.4948 167.527 60.5121 167.521 60.5299 167.521C60.5476 167.521 60.5649 167.527 60.5793 167.539C60.7176 167.623 61.9328 168.38 61.9575 168.912C61.9616 168.97 61.9509 169.027 61.9266 169.079C61.9022 169.131 61.8651 169.175 61.8192 169.206C61.7182 169.287 61.5944 169.328 61.4685 169.322ZM60.683 167.823C60.8855 168.533 61.1424 169.012 61.3944 169.106C61.4482 169.124 61.5054 169.127 61.5607 169.115C61.6159 169.103 61.6674 169.077 61.7105 169.038C61.7747 168.991 61.7797 168.943 61.7747 168.912C61.75 168.638 61.1622 168.144 60.683 167.823Z" fill="#407BFF"/>
    <path d="M103.157 93.9702C103.157 93.9702 104.145 126.493 101.962 138.746C99.7188 151.514 92.872 180.449 92.872 180.449L87.3096 179.686C87.3096 179.686 90.8268 150.404 92.3237 137.746C93.9489 123.941 91.8297 91.6133 91.8297 91.6133L103.157 93.9702Z" fill="#263238"/>
    <path d="M94.0675 180.812L86.1388 179.723L86.2327 177.713L94.8628 178.113L94.0675 180.812Z" fill="#407BFF"/>
    <path opacity="0.7" d="M94.0675 180.812L86.1388 179.723L86.2327 177.713L94.8628 178.113L94.0675 180.812Z" fill="white"/>
    <path d="M61.6563 168.049C61.2459 168.028 60.8455 167.907 60.4855 167.696C60.472 167.687 60.4609 167.675 60.4531 167.66C60.4453 167.646 60.4412 167.629 60.441 167.612C60.4432 167.595 60.4487 167.579 60.4573 167.564C60.4658 167.55 60.4771 167.538 60.4904 167.528C60.5349 167.528 61.4784 166.976 62.0218 167.191C62.09 167.218 62.1518 167.259 62.203 167.314C62.2543 167.369 62.2936 167.434 62.3182 167.507C62.3507 167.577 62.3601 167.657 62.3448 167.733C62.3296 167.809 62.2907 167.878 62.2343 167.928C62.0588 168.033 61.8561 168.076 61.6563 168.049ZM60.7325 167.623C61.1623 167.833 61.9132 167.949 62.1206 167.775C62.1552 167.744 62.1898 167.696 62.1206 167.575C62.1061 167.529 62.0816 167.486 62.049 167.452C62.0164 167.417 61.9767 167.391 61.9329 167.375C61.5185 167.326 61.0997 167.412 60.7325 167.623Z" fill="#407BFF"/>
    <path d="M93.1586 186.088C92.7518 186.079 92.3466 186.03 91.9483 185.941C91.9294 185.939 91.9118 185.93 91.8983 185.916C91.8848 185.901 91.8764 185.882 91.8742 185.862C91.8713 185.842 91.8745 185.822 91.8834 185.804C91.8923 185.786 91.9064 185.771 91.9236 185.762C92.1015 185.662 93.6625 184.826 94.1269 185.105C94.1712 185.131 94.2082 185.169 94.2343 185.215C94.2603 185.261 94.2744 185.314 94.2751 185.368C94.2847 185.455 94.2734 185.544 94.2424 185.626C94.2113 185.708 94.1614 185.78 94.0972 185.836C93.8197 186.03 93.4892 186.119 93.1586 186.088ZM92.2546 185.804C93.1043 185.957 93.7366 185.915 93.9787 185.694C94.0202 185.655 94.0523 185.606 94.0721 185.551C94.0919 185.496 94.0988 185.437 94.0923 185.378C94.0937 185.357 94.0894 185.336 94.0797 185.317C94.0701 185.298 94.0556 185.283 94.038 185.273C93.786 185.126 92.8968 185.478 92.2546 185.804Z" fill="#407BFF"/>
    <path d="M91.968 185.947C91.9503 185.952 91.9315 185.952 91.9137 185.947C91.9004 185.937 91.8898 185.923 91.8828 185.907C91.8759 185.892 91.8729 185.874 91.8742 185.857C91.8742 185.783 92.0668 184.005 93.0005 184.11C93.2475 184.137 93.3216 184.268 93.3364 184.379C93.4056 184.842 92.4719 185.736 92.0026 185.957L91.968 185.947ZM92.9264 184.279C92.3731 184.279 92.1508 185.252 92.0817 185.673C92.5757 185.368 93.1981 184.668 93.1586 184.389C93.1586 184.389 93.1586 184.3 92.9807 184.284L92.9264 184.279Z" fill="#407BFF"/>
    <path d="M87.8333 89.7721L86.9095 91.0925C86.8403 91.1978 86.949 91.3398 87.1268 91.3766L103.355 94.7226C103.493 94.7226 103.622 94.7226 103.641 94.6121L104.012 93.1706C104.012 93.0759 103.928 92.9602 103.775 92.9286L88.105 89.6984C88.0575 89.6849 88.0077 89.6845 87.9601 89.6974C87.9125 89.7103 87.8688 89.736 87.8333 89.7721Z" fill="#407BFF"/>
    <path d="M89.6512 92.0657L89.2313 91.9763C89.1473 91.9763 89.093 91.9026 89.1078 91.85L89.6018 89.9824C89.6018 89.9298 89.7006 89.8982 89.7796 89.914L90.1995 90.0034C90.2835 90.0034 90.3428 90.0771 90.328 90.1297L89.834 91.9973C89.8142 92.0657 89.7352 92.0657 89.6512 92.0657Z" fill="#263238"/>
    <path d="M100.247 94.2702L99.8276 94.186C99.7436 94.186 99.6893 94.1071 99.7041 94.0545L100.198 92.1921C100.198 92.1343 100.292 92.1027 100.376 92.1237L100.796 92.2079C100.875 92.2079 100.934 92.2868 100.919 92.3394L100.425 94.2018C100.411 94.2597 100.331 94.2912 100.247 94.2702Z" fill="#263238"/>
  </g>
  <defs>
    <clipPath id="clip0_961_3121">
      <rect width="247" height="196" fill="white"/>
    </clipPath>
  </defs>
</svg>