<svg xmlns="http://www.w3.org/2000/svg" width="17" height="10" viewBox="0 0 17 10" fill="none">
  <path d="M0.5 5C0.5 4.84127 0.550891 4.7123 0.652672 4.6131C0.754453 4.51389 0.886768 4.46429 1.04962 4.46429H14.5458L10.9427 0.952381C10.8206 0.833333 10.7595 0.694445 10.7595 0.535714C10.7595 0.376984 10.8206 0.248015 10.9427 0.148809C11.0649 0.0496035 11.2074 0 11.3702 0C11.5331 0 11.6756 0.0396824 11.7977 0.119047L16.3779 4.58333C16.4593 4.70238 16.5 4.84127 16.5 5C16.5 5.15873 16.4593 5.29762 16.3779 5.41667L11.7977 9.88095C11.6756 9.96032 11.5331 10 11.3702 10C11.2074 10 11.0649 9.9504 10.9427 9.85119C10.8206 9.75198 10.7595 9.62302 10.7595 9.46429C10.7595 9.30556 10.8206 9.16667 10.9427 9.04762L14.5458 5.53571H1.04962C0.886768 5.53571 0.754453 5.48611 0.652672 5.3869C0.550891 5.2877 0.5 5.15873 0.5 5Z" fill="white"/>
</svg>