<svg xmlns="http://www.w3.org/2000/svg" width="29" height="29" viewBox="0 0 29 29" fill="none">
  <path d="M18.9247 28.2451H18.7471C12.6823 28.2451 9.75913 25.8547 9.25372 20.5002C9.19909 19.9401 9.60887 19.4347 10.1826 19.3801C10.729 19.3255 11.248 19.7489 11.3026 20.309C11.6988 24.598 13.7204 26.1962 18.7607 26.1962H18.9383C24.4977 26.1962 26.4647 24.2292 26.4647 18.6698V9.76379C26.4647 4.20437 24.4977 2.2374 18.9383 2.2374H18.7607C13.6931 2.2374 11.6715 3.86288 11.3026 8.23392C11.2344 8.79396 10.7563 9.21741 10.1826 9.16277C9.60887 9.12179 9.19909 8.61639 9.24007 8.05635C9.70449 2.61987 12.6413 0.188477 18.7471 0.188477H18.9247C25.6315 0.188477 28.5 3.05697 28.5 9.76379V18.6698C28.5 25.3766 25.6315 28.2451 18.9247 28.2451Z" fill="#292D32"/>
  <path d="M18.5949 15.2413H3.05046C2.49042 15.2413 2.026 14.7769 2.026 14.2168C2.026 13.6568 2.49042 13.1924 3.05046 13.1924H18.5949C19.155 13.1924 19.6194 13.6568 19.6194 14.2168C19.6194 14.7769 19.155 15.2413 18.5949 15.2413Z" fill="#292D32"/>
  <path d="M6.09698 19.8175C5.83745 19.8175 5.57792 19.7219 5.37303 19.517L0.797094 14.9411C0.400969 14.5449 0.400969 13.8893 0.797094 13.4932L5.37303 8.91721C5.76915 8.52109 6.42481 8.52109 6.82094 8.91721C7.21706 9.31334 7.21706 9.96899 6.82094 10.3651L2.96896 14.2171L6.82094 18.0691C7.21706 18.4652 7.21706 19.1209 6.82094 19.517C6.6297 19.7219 6.35651 19.8175 6.09698 19.8175Z" fill="#292D32"/>
</svg>